<svg xmlns="http://www.w3.org/2000/svg" width="1250" height="1667" viewBox="0 0 1250 1667" version="1.1"><path d="M 576 417.663 C 510.787 424.055, 467.754 437.822, 425.737 465.737 L 415.975 472.223 417.859 475.362 C 418.895 477.088, 432.234 500.775, 447.501 528 C 462.767 555.225, 475.601 577.879, 476.020 578.341 C 476.440 578.804, 480.769 575.912, 485.641 571.915 C 504.005 556.849, 526.584 543.646, 545 537.206 C 560.871 531.655, 568.615 530.491, 589 530.590 C 637.465 530.824, 669.267 544.737, 682.445 571.472 C 687.329 581.380, 689.087 588.769, 689.712 602.025 C 690.168 611.683, 689.914 614.902, 688.147 621.891 C 681.377 648.662, 665.781 671.536, 623.981 716 C 585.602 756.826, 563.099 783.281, 549.553 803.500 C 540.828 816.524, 529.343 839.687, 524.751 853.521 C 514.246 885.171, 511.134 924.558, 517.282 948.045 C 518.656 953.294, 522.887 965.669, 526.685 975.545 L 533.589 993.500 589.575 993.758 L 645.561 994.016 642.103 977.758 C 638.859 962.504, 638.644 960.326, 638.624 942.500 C 638.606 926.616, 638.964 921.833, 640.803 913.336 C 645.524 891.522, 654.430 870.223, 665.352 854.622 C 679.385 834.577, 702.746 809.722, 739.505 775.727 C 759.150 757.560, 778.594 737.122, 791.103 721.492 C 818.330 687.475, 830.077 657.180, 833.005 613.430 C 836.517 560.933, 822.088 518.028, 789.534 484.178 C 753.824 447.045, 707.278 425.278, 649.006 418.462 C 637.656 417.134, 587.048 416.580, 576 417.663 M 577.763 1070.512 C 540.508 1077.569, 511.244 1104.553, 502.943 1139.505 C 500.647 1149.171, 500.180 1166.678, 501.969 1176 C 508.418 1209.597, 534.483 1237.040, 569.605 1247.213 C 576.605 1249.241, 579.597 1249.494, 596 1249.447 C 613.184 1249.397, 615.125 1249.201, 623.282 1246.692 C 655.831 1236.679, 679.677 1212.709, 688.137 1181.500 C 690.953 1171.111, 691.228 1150.025, 688.683 1139.704 C 683.824 1119.998, 671.384 1101.178, 655.024 1088.781 C 646.465 1082.296, 630.509 1074.494, 620.500 1071.901 C 609.879 1069.149, 588.611 1068.458, 577.763 1070.512" stroke="none" fill="#fbfbfb" fill-rule="evenodd"/><path d="M 0 833.501 L 0 1667.002 625.250 1666.751 L 1250.500 1666.500 1250.751 833.250 L 1251.001 -0 625.501 -0 L 0 0 0 833.501 M 0.498 834 C 0.498 1292.425, 0.611 1479.962, 0.750 1250.750 C 0.889 1021.537, 0.889 646.462, 0.750 417.250 C 0.611 188.037, 0.498 375.575, 0.498 834 M 576 417.663 C 510.787 424.055, 467.754 437.822, 425.737 465.737 L 415.975 472.223 417.859 475.362 C 418.895 477.088, 432.234 500.775, 447.501 528 C 462.767 555.225, 475.601 577.879, 476.020 578.341 C 476.440 578.804, 480.769 575.912, 485.641 571.915 C 504.005 556.849, 526.584 543.646, 545 537.206 C 560.871 531.655, 568.615 530.491, 589 530.590 C 637.465 530.824, 669.267 544.737, 682.445 571.472 C 687.329 581.380, 689.087 588.769, 689.712 602.025 C 690.168 611.683, 689.914 614.902, 688.147 621.891 C 681.377 648.662, 665.781 671.536, 623.981 716 C 585.602 756.826, 563.099 783.281, 549.553 803.500 C 540.828 816.524, 529.343 839.687, 524.751 853.521 C 514.246 885.171, 511.134 924.558, 517.282 948.045 C 518.656 953.294, 522.887 965.669, 526.685 975.545 L 533.589 993.500 589.575 993.758 L 645.561 994.016 642.103 977.758 C 638.859 962.504, 638.644 960.326, 638.624 942.500 C 638.606 926.616, 638.964 921.833, 640.803 913.336 C 645.524 891.522, 654.430 870.223, 665.352 854.622 C 679.385 834.577, 702.746 809.722, 739.505 775.727 C 759.150 757.560, 778.594 737.122, 791.103 721.492 C 818.330 687.475, 830.077 657.180, 833.005 613.430 C 836.517 560.933, 822.088 518.028, 789.534 484.178 C 753.824 447.045, 707.278 425.278, 649.006 418.462 C 637.656 417.134, 587.048 416.580, 576 417.663 M 577.763 1070.512 C 540.508 1077.569, 511.244 1104.553, 502.943 1139.505 C 500.647 1149.171, 500.180 1166.678, 501.969 1176 C 508.418 1209.597, 534.483 1237.040, 569.605 1247.213 C 576.605 1249.241, 579.597 1249.494, 596 1249.447 C 613.184 1249.397, 615.125 1249.201, 623.282 1246.692 C 655.831 1236.679, 679.677 1212.709, 688.137 1181.500 C 690.953 1171.111, 691.228 1150.025, 688.683 1139.704 C 683.824 1119.998, 671.384 1101.178, 655.024 1088.781 C 646.465 1082.296, 630.509 1074.494, 620.500 1071.901 C 609.879 1069.149, 588.611 1068.458, 577.763 1070.512" stroke="none" fill="#dcdcdc" fill-rule="evenodd"/></svg>